<svg width="208" height="26" viewBox="0 0 208 26" fill="none" xmlns="http://www.w3.org/2000/svg">
<path d="M9.8 19.25C9.06667 17.5833 8.325 15.925 7.575 14.275C6.825 12.6083 6.09167 10.925 5.375 9.225C5.14167 8.69167 4.90833 8.15833 4.675 7.625C4.45833 7.075 4.24167 6.525 4.025 5.975C3.825 5.425 3.61667 4.875 3.4 4.325C3.4 4.50833 3.39167 4.69167 3.375 4.875C3.375 5.05833 3.375 5.24167 3.375 5.425C3.35833 6.025 3.33333 6.75 3.3 7.6C3.28333 8.43333 3.25833 9.33333 3.225 10.3C3.19167 11.25 3.16667 12.2083 3.15 13.175C3.13333 14.125 3.11667 15.025 3.1 15.875C3.08333 16.2417 3.06667 16.6083 3.05 16.975C3.05 17.3417 3.03333 17.6833 3 18C3.31667 17.9833 3.625 17.9667 3.925 17.95C4.24167 17.9333 4.55833 17.9167 4.875 17.9V19H0.1V18.175C0.616667 18.1583 0.991667 18.05 1.225 17.85C1.475 17.6333 1.63333 17.35 1.7 17C1.76667 16.65 1.80833 16.275 1.825 15.875L2.3 4.475C2.31667 4.14167 2.325 3.80833 2.325 3.475C2.34167 3.14167 2.35833 2.81667 2.375 2.5C2.075 2.51667 1.775 2.53333 1.475 2.55C1.175 2.55 0.875 2.55833 0.575 2.575V1.5H4.4L8.7 11.425C8.91667 11.925 9.125 12.425 9.325 12.925C9.54167 13.425 9.75833 13.925 9.975 14.425C10.2083 14.925 10.4333 15.4333 10.65 15.95H10.7C10.8833 15.5 11.1 14.9667 11.35 14.35C11.6 13.7167 11.8083 13.175 11.975 12.725C12.7083 10.8917 13.4667 9.05833 14.25 7.225C15.05 5.375 15.8333 3.46667 16.6 1.5H20.3V2.325C19.8833 2.30833 19.5417 2.39167 19.275 2.575C19.0083 2.74167 18.8167 3.025 18.7 3.425C18.5833 3.825 18.5417 4.36667 18.575 5.05L19.225 16.425C19.2583 16.7083 19.275 16.9833 19.275 17.25C19.275 17.5167 19.275 17.7583 19.275 17.975C19.575 17.9583 19.875 17.95 20.175 17.95C20.4917 17.9333 20.8 17.9167 21.1 17.9V19H15.5V18.175C16.0167 18.1583 16.4 18.0333 16.65 17.8C16.9 17.5667 17.05 17.2333 17.1 16.8C17.1667 16.3667 17.1833 15.8333 17.15 15.2L16.65 6.95C16.6333 6.68333 16.6167 6.41667 16.6 6.15C16.5833 5.88333 16.5667 5.61667 16.55 5.35C16.5333 5.08333 16.5167 4.81667 16.5 4.55C16.45 4.66667 16.3917 4.79167 16.325 4.925C16.275 5.05833 16.225 5.2 16.175 5.35L10.55 19.25H9.8ZM22.5992 18.25C23.1159 18.25 23.4742 18.125 23.6742 17.875C23.8742 17.6083 23.9909 17.25 24.0242 16.8C24.0576 16.3333 24.0742 15.8 24.0742 15.2V9.5C24.0742 9.23333 24.0826 8.98333 24.0992 8.75C24.1159 8.5 24.1409 8.20833 24.1742 7.875C23.8742 7.89167 23.5742 7.90833 23.2742 7.925C22.9909 7.94167 22.6992 7.95833 22.3992 7.975V6.925C23.1326 6.925 23.6992 6.89167 24.0992 6.825C24.4992 6.75833 24.7992 6.675 24.9992 6.575C25.2159 6.475 25.3826 6.36667 25.4992 6.25H26.2242V16.35C26.2242 16.6833 26.2159 16.9833 26.1992 17.25C26.1992 17.5 26.1742 17.7667 26.1242 18.05C26.3909 18.0333 26.6492 18.025 26.8992 18.025C27.1659 18.0083 27.4326 17.9917 27.6992 17.975V19H22.5992V18.25ZM25.0242 3.775C24.6742 3.775 24.3659 3.63333 24.0992 3.35C23.8326 3.06667 23.6992 2.71667 23.6992 2.3C23.6992 1.88333 23.8326 1.53333 24.0992 1.25C24.3826 0.949999 24.6992 0.799999 25.0492 0.799999C25.4326 0.799999 25.7492 0.949999 25.9992 1.25C26.2659 1.53333 26.3992 1.88333 26.3992 2.3C26.3992 2.71667 26.2576 3.06667 25.9742 3.35C25.7076 3.63333 25.3909 3.775 25.0242 3.775ZM35.2805 19.4C34.1638 19.4 33.1305 19.15 32.1805 18.65C31.2471 18.1333 30.4971 17.4 29.9305 16.45C29.3805 15.4833 29.1055 14.325 29.1055 12.975C29.1055 12.1083 29.2638 11.2667 29.5805 10.45C29.8971 9.63333 30.3388 8.9 30.9055 8.25C31.4888 7.58333 32.1805 7.05833 32.9805 6.675C33.7805 6.29167 34.6638 6.1 35.6305 6.1C36.5638 6.1 37.3721 6.24167 38.0555 6.525C38.7555 6.80833 39.2971 7.18333 39.6805 7.65C40.0638 8.11667 40.2555 8.625 40.2555 9.175C40.2555 9.54167 40.1555 9.85833 39.9555 10.125C39.7555 10.375 39.4638 10.5 39.0805 10.5C38.6638 10.5167 38.3638 10.3917 38.1805 10.125C38.0138 9.84167 37.9305 9.59167 37.9305 9.375C37.9305 9.20833 37.9555 9.04167 38.0055 8.875C38.0555 8.69167 38.1555 8.525 38.3055 8.375C38.1721 7.975 37.9388 7.68333 37.6055 7.5C37.2721 7.3 36.9221 7.175 36.5555 7.125C36.2055 7.05833 35.9138 7.025 35.6805 7.025C34.5471 7.025 33.5888 7.48333 32.8055 8.4C32.0388 9.3 31.6555 10.6167 31.6555 12.35C31.6555 13.4667 31.8305 14.4583 32.1805 15.325C32.5471 16.1917 33.0555 16.875 33.7055 17.375C34.3555 17.8583 35.1055 18.1 35.9555 18.1C36.7388 18.1 37.4888 17.8917 38.2055 17.475C38.9221 17.0583 39.4805 16.55 39.8805 15.95L40.5305 16.45C40.0971 17.15 39.5721 17.7167 38.9555 18.15C38.3555 18.5833 37.7305 18.9 37.0805 19.1C36.4471 19.3 35.8471 19.4 35.2805 19.4ZM50.0611 18.25C50.5778 18.25 50.9361 18.125 51.1361 17.875C51.3361 17.6083 51.4528 17.25 51.4861 16.8C51.5195 16.3333 51.5361 15.8 51.5361 15.2V11.7C51.5361 10.2667 51.3028 9.19167 50.8361 8.475C50.3861 7.75833 49.6695 7.40833 48.6861 7.425C48.0695 7.44167 47.4611 7.59167 46.8611 7.875C46.2778 8.15833 45.8028 8.525 45.4361 8.975V16.35C45.4361 16.6833 45.4278 16.9833 45.4111 17.25C45.3945 17.5 45.3611 17.7667 45.3111 18.05C45.5778 18.0333 45.8361 18.025 46.0861 18.025C46.3528 18.0083 46.6195 17.9917 46.8861 17.975V19H41.7861V18.25C42.3028 18.25 42.6611 18.125 42.8611 17.875C43.0611 17.6083 43.1778 17.25 43.2111 16.8C43.2611 16.3333 43.2861 15.8 43.2861 15.2V3.375C43.2861 3.10833 43.2861 2.85833 43.2861 2.625C43.3028 2.375 43.3278 2.08333 43.3611 1.75C43.0611 1.76667 42.7611 1.78333 42.4611 1.8C42.1778 1.81667 41.8861 1.83333 41.5861 1.85V0.799999C42.3195 0.799999 42.8861 0.766665 43.2861 0.699999C43.7028 0.633332 44.0111 0.549999 44.2111 0.449999C44.4278 0.349999 44.5945 0.241666 44.7111 0.124999H45.4361V7.75C45.8028 7.43333 46.2111 7.15833 46.6611 6.925C47.1278 6.675 47.6028 6.475 48.0861 6.325C48.5861 6.175 49.0695 6.1 49.5361 6.1C50.9861 6.1 52.0278 6.55833 52.6611 7.475C53.3111 8.375 53.6445 9.78333 53.6611 11.7L53.6861 16.35C53.6861 16.6833 53.6778 16.9833 53.6611 17.25C53.6611 17.5 53.6361 17.7667 53.5861 18.05C53.8528 18.0333 54.1111 18.025 54.3611 18.025C54.6278 18.0083 54.8945 17.9917 55.1611 17.975V19H50.0611V18.25ZM64.152 19C64.102 18.7167 64.0686 18.4667 64.052 18.25C64.0353 18.0333 64.0103 17.8083 63.977 17.575C63.4103 18.1417 62.7936 18.5917 62.127 18.925C61.477 19.2417 60.7853 19.4 60.052 19.4C58.7853 19.4 57.8436 19.1167 57.227 18.55C56.6103 17.9667 56.302 17.2583 56.302 16.425C56.302 15.6583 56.5353 15 57.002 14.45C57.4853 13.8833 58.102 13.425 58.852 13.075C59.6186 12.7083 60.4436 12.4417 61.327 12.275C62.227 12.0917 63.0936 12.0083 63.927 12.025V10.475C63.927 9.89167 63.877 9.34167 63.777 8.825C63.677 8.30833 63.4603 7.88333 63.127 7.55C62.7936 7.21667 62.2603 7.04167 61.527 7.025C61.0436 7.00833 60.5436 7.1 60.027 7.3C59.527 7.5 59.1603 7.84167 58.927 8.325C59.0603 8.45833 59.1436 8.61667 59.177 8.8C59.227 8.96667 59.252 9.125 59.252 9.275C59.252 9.475 59.1686 9.70833 59.002 9.975C58.8353 10.225 58.5436 10.3417 58.127 10.325C57.777 10.325 57.5103 10.2083 57.327 9.975C57.1436 9.725 57.052 9.43333 57.052 9.1C57.052 8.53333 57.2603 8.025 57.677 7.575C58.1103 7.125 58.702 6.76667 59.452 6.5C60.202 6.23333 61.052 6.1 62.002 6.1C63.402 6.1 64.4353 6.475 65.102 7.225C65.7686 7.95833 66.0936 9.125 66.077 10.725C66.077 11.3417 66.077 11.9667 66.077 12.6C66.077 13.2167 66.0686 13.8417 66.052 14.475C66.052 15.0917 66.052 15.7167 66.052 16.35C66.052 16.6167 66.0436 16.8833 66.027 17.15C66.0103 17.4167 65.9853 17.7167 65.952 18.05C66.252 18.0333 66.5436 18.0167 66.827 18C67.127 17.9833 67.427 17.9667 67.727 17.95V19H64.152ZM63.927 12.875C63.3603 12.8917 62.7603 12.9667 62.127 13.1C61.5103 13.2167 60.9353 13.4 60.402 13.65C59.8853 13.9 59.4603 14.2333 59.127 14.65C58.8103 15.05 58.6603 15.5417 58.677 16.125C58.7103 16.7417 58.9103 17.2083 59.277 17.525C59.6603 17.825 60.1103 17.975 60.627 17.975C61.3103 17.975 61.902 17.85 62.402 17.6C62.9186 17.3333 63.427 16.9667 63.927 16.5C63.9103 16.3167 63.902 16.1167 63.902 15.9C63.902 15.6833 63.902 15.4583 63.902 15.225C63.902 15.1417 63.902 14.875 63.902 14.425C63.9186 13.975 63.927 13.4583 63.927 12.875ZM75.0426 19.4C73.8926 19.4 72.8509 19.1333 71.9176 18.6C71.0009 18.05 70.2759 17.2833 69.7426 16.3C69.2092 15.3 68.9426 14.125 68.9426 12.775C68.9426 11.6083 69.2009 10.5167 69.7176 9.5C70.2509 8.48333 70.9926 7.66667 71.9426 7.05C72.8926 6.41667 73.9926 6.1 75.2426 6.1C75.9426 6.1 76.5926 6.21667 77.1926 6.45C77.8092 6.66667 78.3509 7.00833 78.8176 7.475C79.2842 7.925 79.6509 8.5 79.9176 9.2C80.1842 9.88333 80.3176 10.6917 80.3176 11.625L71.5176 11.775C71.5176 13.0417 71.6509 14.1583 71.9176 15.125C72.2009 16.075 72.6509 16.8167 73.2676 17.35C73.8842 17.8667 74.6759 18.125 75.6426 18.125C76.1592 18.125 76.6842 18.0333 77.2176 17.85C77.7676 17.6667 78.2759 17.4167 78.7426 17.1C79.2092 16.7833 79.5842 16.4333 79.8676 16.05L80.4676 16.55C80.0176 17.25 79.4759 17.8083 78.8426 18.225C78.2092 18.6417 77.5592 18.9417 76.8926 19.125C76.2259 19.3083 75.6092 19.4 75.0426 19.4ZM71.5926 10.725H77.9676C77.9676 10.125 77.8759 9.55 77.6926 9C77.5259 8.43333 77.2426 7.975 76.8426 7.625C76.4426 7.25833 75.9176 7.075 75.2676 7.075C74.3009 7.075 73.4926 7.36667 72.8426 7.95C72.2092 8.51667 71.7926 9.44167 71.5926 10.725ZM81.8424 18.25C82.3591 18.25 82.7174 18.125 82.9174 17.875C83.1174 17.6083 83.2341 17.25 83.2674 16.8C83.3007 16.3333 83.3174 15.8 83.3174 15.2V3.375C83.3174 3.10833 83.3174 2.85833 83.3174 2.625C83.3341 2.375 83.3591 2.08333 83.3924 1.75C83.0924 1.76667 82.7924 1.78333 82.4924 1.8C82.2091 1.81667 81.9174 1.83333 81.6174 1.85V0.799999C82.3507 0.799999 82.9174 0.766665 83.3174 0.699999C83.7341 0.633332 84.0424 0.549999 84.2424 0.449999C84.4591 0.349999 84.6257 0.241666 84.7424 0.124999H85.4674L85.4924 16.35C85.4924 16.6833 85.4841 16.9833 85.4674 17.25C85.4507 17.5 85.4174 17.7667 85.3674 18.05C85.6341 18.0333 85.8924 18.025 86.1424 18.025C86.4091 18.0083 86.6757 17.9917 86.9424 17.975V19H81.8424V18.25ZM104.671 6.8C104.621 6 104.43 5.24167 104.096 4.525C103.763 3.80833 103.28 3.225 102.646 2.775C102.013 2.325 101.205 2.1 100.221 2.1C99.188 2.1 98.3963 2.39167 97.8463 2.975C97.2963 3.55833 97.0213 4.24167 97.0213 5.025C97.0213 5.725 97.2213 6.31667 97.6213 6.8C98.0213 7.26667 98.538 7.68333 99.1713 8.05C99.8213 8.4 100.505 8.74167 101.221 9.075C101.855 9.35833 102.488 9.66667 103.121 10C103.755 10.3167 104.33 10.6833 104.846 11.1C105.363 11.5167 105.771 12.0167 106.071 12.6C106.388 13.1667 106.546 13.85 106.546 14.65C106.546 15.5667 106.313 16.3833 105.846 17.1C105.396 17.8167 104.738 18.3833 103.871 18.8C103.005 19.2 101.946 19.4 100.696 19.4C99.9463 19.4 99.1713 19.2917 98.3713 19.075C97.5713 18.8583 96.863 18.5417 96.2463 18.125L96.3713 19.2H95.0713L94.9213 13.875H95.8963C95.9796 15.3417 96.488 16.4583 97.4213 17.225C98.3546 17.975 99.4796 18.35 100.796 18.35C101.446 18.35 102.046 18.2333 102.596 18C103.146 17.75 103.58 17.3917 103.896 16.925C104.23 16.4583 104.396 15.8917 104.396 15.225C104.396 14.475 104.196 13.85 103.796 13.35C103.396 12.85 102.88 12.4167 102.246 12.05C101.613 11.6833 100.938 11.3333 100.221 11C99.588 10.7167 98.963 10.4167 98.3463 10.1C97.7296 9.78333 97.163 9.425 96.6463 9.025C96.1463 8.60833 95.738 8.11667 95.4213 7.55C95.1213 6.98333 94.9713 6.3 94.9713 5.5C94.9713 5.06667 95.0463 4.6 95.1963 4.1C95.3463 3.6 95.6046 3.125 95.9713 2.675C96.3546 2.20833 96.8713 1.83333 97.5213 1.55C98.188 1.25 99.0296 1.1 100.046 1.1C100.68 1.1 101.388 1.19167 102.171 1.375C102.971 1.54167 103.713 1.875 104.396 2.375L104.296 1.3H105.571V6.8H104.671ZM110.256 19.4C109.873 19.4 109.531 19.25 109.231 18.95C108.948 18.6333 108.806 18.25 108.806 17.8C108.806 17.35 108.956 16.9667 109.256 16.65C109.556 16.3333 109.898 16.175 110.281 16.175C110.698 16.175 111.039 16.3333 111.306 16.65C111.589 16.9667 111.731 17.35 111.731 17.8C111.731 18.25 111.581 18.6333 111.281 18.95C110.981 19.25 110.639 19.4 110.256 19.4ZM120.401 18.175C121.034 18.1417 121.467 18 121.701 17.75C121.934 17.4833 122.059 17.125 122.076 16.675C122.109 16.2083 122.126 15.6833 122.126 15.1V4.3C122.126 3.96667 122.134 3.65 122.151 3.35C122.167 3.03333 122.184 2.75 122.201 2.5C121.901 2.51667 121.601 2.53333 121.301 2.55C121.001 2.56667 120.701 2.58333 120.401 2.6V1.5C121.284 1.48333 122.192 1.475 123.126 1.475C124.059 1.45833 125.009 1.45 125.976 1.45C127.592 1.45 128.951 1.63333 130.051 2C131.151 2.36667 131.992 2.90833 132.576 3.625C133.159 4.34167 133.476 5.23333 133.526 6.3C133.559 6.95 133.459 7.63333 133.226 8.35C133.009 9.05 132.592 9.71667 131.976 10.35C131.376 10.9667 130.526 11.4667 129.426 11.85C128.326 12.2333 126.917 12.425 125.201 12.425C125.134 12.425 125.009 12.425 124.826 12.425C124.642 12.425 124.467 12.4167 124.301 12.4V16.025C124.301 16.475 124.292 16.8667 124.276 17.2C124.276 17.5167 124.259 17.7833 124.226 18C124.492 17.9833 124.751 17.9667 125.001 17.95C125.251 17.9333 125.501 17.925 125.751 17.925C126.017 17.9083 126.276 17.8917 126.526 17.875V19H120.401V18.175ZM124.301 11.375C124.617 11.4083 124.884 11.4333 125.101 11.45C125.334 11.45 125.609 11.45 125.926 11.45C126.876 11.45 127.742 11.2667 128.526 10.9C129.309 10.5167 129.934 9.975 130.401 9.275C130.867 8.575 131.101 7.74167 131.101 6.775C131.101 5.99167 130.976 5.325 130.726 4.775C130.476 4.20833 130.117 3.75833 129.651 3.425C129.201 3.075 128.659 2.825 128.026 2.675C127.392 2.50833 126.692 2.425 125.926 2.425C125.342 2.425 124.934 2.55 124.701 2.8C124.484 3.05 124.359 3.4 124.326 3.85C124.309 4.28333 124.301 4.8 124.301 5.4V11.375ZM142.266 19C142.216 18.7167 142.182 18.4667 142.166 18.25C142.149 18.0333 142.124 17.8083 142.091 17.575C141.524 18.1417 140.907 18.5917 140.241 18.925C139.591 19.2417 138.899 19.4 138.166 19.4C136.899 19.4 135.957 19.1167 135.341 18.55C134.724 17.9667 134.416 17.2583 134.416 16.425C134.416 15.6583 134.649 15 135.116 14.45C135.599 13.8833 136.216 13.425 136.966 13.075C137.732 12.7083 138.557 12.4417 139.441 12.275C140.341 12.0917 141.207 12.0083 142.041 12.025V10.475C142.041 9.89167 141.991 9.34167 141.891 8.825C141.791 8.30833 141.574 7.88333 141.241 7.55C140.907 7.21667 140.374 7.04167 139.641 7.025C139.157 7.00833 138.657 7.1 138.141 7.3C137.641 7.5 137.274 7.84167 137.041 8.325C137.174 8.45833 137.257 8.61667 137.291 8.8C137.341 8.96667 137.366 9.125 137.366 9.275C137.366 9.475 137.282 9.70833 137.116 9.975C136.949 10.225 136.657 10.3417 136.241 10.325C135.891 10.325 135.624 10.2083 135.441 9.975C135.257 9.725 135.166 9.43333 135.166 9.1C135.166 8.53333 135.374 8.025 135.791 7.575C136.224 7.125 136.816 6.76667 137.566 6.5C138.316 6.23333 139.166 6.1 140.116 6.1C141.516 6.1 142.549 6.475 143.216 7.225C143.882 7.95833 144.207 9.125 144.191 10.725C144.191 11.3417 144.191 11.9667 144.191 12.6C144.191 13.2167 144.182 13.8417 144.166 14.475C144.166 15.0917 144.166 15.7167 144.166 16.35C144.166 16.6167 144.157 16.8833 144.141 17.15C144.124 17.4167 144.099 17.7167 144.066 18.05C144.366 18.0333 144.657 18.0167 144.941 18C145.241 17.9833 145.541 17.9667 145.841 17.95V19H142.266ZM142.041 12.875C141.474 12.8917 140.874 12.9667 140.241 13.1C139.624 13.2167 139.049 13.4 138.516 13.65C137.999 13.9 137.574 14.2333 137.241 14.65C136.924 15.05 136.774 15.5417 136.791 16.125C136.824 16.7417 137.024 17.2083 137.391 17.525C137.774 17.825 138.224 17.975 138.741 17.975C139.424 17.975 140.016 17.85 140.516 17.6C141.032 17.3333 141.541 16.9667 142.041 16.5C142.024 16.3167 142.016 16.1167 142.016 15.9C142.016 15.6833 142.016 15.4583 142.016 15.225C142.016 15.1417 142.016 14.875 142.016 14.425C142.032 13.975 142.041 13.4583 142.041 12.875ZM148.787 25.775C148.271 25.775 147.829 25.65 147.462 25.4C147.096 25.15 146.912 24.7667 146.912 24.25C146.912 23.95 147.012 23.675 147.212 23.425C147.412 23.175 147.671 23.05 147.987 23.05C148.387 23.0333 148.654 23.1583 148.787 23.425C148.937 23.6917 149.012 23.925 149.012 24.125C149.012 24.175 149.012 24.225 149.012 24.275C149.012 24.3417 149.004 24.4083 148.987 24.475C149.037 24.5083 149.129 24.525 149.262 24.525C149.462 24.525 149.679 24.4417 149.912 24.275C150.146 24.1083 150.354 23.8667 150.537 23.55C150.754 23.1833 151.004 22.6333 151.287 21.9C151.587 21.1667 151.921 20.2917 152.287 19.275L148.387 10.925C147.954 9.99167 147.637 9.25 147.437 8.7C147.254 8.15 147.129 7.74167 147.062 7.475L145.862 7.525V6.5H151.037V7.25H150.937C150.237 7.3 149.854 7.56667 149.787 8.05C149.721 8.51667 149.912 9.23333 150.362 10.2L153.287 16.475C153.671 15.4083 154.037 14.3583 154.387 13.325C154.737 12.275 155.087 11.2333 155.437 10.2C155.571 9.83333 155.704 9.45833 155.837 9.075C155.987 8.675 156.129 8.325 156.262 8.025C156.412 7.70833 156.546 7.50833 156.662 7.425L154.937 7.525V6.5H158.862V7.25C158.246 7.48333 157.779 7.875 157.462 8.425C157.162 8.95833 156.854 9.65 156.537 10.5L153.412 19.225C152.912 20.625 152.454 21.8083 152.037 22.775C151.621 23.7583 151.162 24.5 150.662 25C150.162 25.5167 149.537 25.775 148.787 25.775ZM159.62 19V18.25C160.137 18.25 160.495 18.125 160.695 17.875C160.895 17.6083 161.012 17.25 161.045 16.8C161.079 16.3333 161.095 15.8 161.095 15.2L161.12 9.5C161.12 9.23333 161.12 8.96667 161.12 8.7C161.137 8.43333 161.17 8.15833 161.22 7.875C160.92 7.89167 160.62 7.90833 160.32 7.925C160.037 7.94167 159.745 7.95833 159.445 7.975V6.925C160.179 6.925 160.729 6.89167 161.095 6.825C161.479 6.75833 161.762 6.675 161.945 6.575C162.129 6.475 162.279 6.36667 162.395 6.25H163.12C163.137 6.36667 163.145 6.5 163.145 6.65C163.162 6.8 163.179 6.96667 163.195 7.15C163.212 7.33333 163.22 7.54167 163.22 7.775C163.587 7.45833 163.987 7.175 164.42 6.925C164.87 6.675 165.337 6.475 165.82 6.325C166.32 6.175 166.812 6.1 167.295 6.1C168.745 6.1 169.804 6.55833 170.47 7.475C171.137 8.375 171.47 9.78333 171.47 11.7V16.35C171.47 16.6833 171.462 16.9833 171.445 17.25C171.445 17.5 171.42 17.7667 171.37 18.05C171.637 18.0333 171.895 18.025 172.145 18.025C172.412 18.0083 172.679 17.9917 172.945 17.975V19H167.845V18.25C168.362 18.25 168.72 18.125 168.92 17.875C169.12 17.6083 169.237 17.25 169.27 16.8C169.304 16.3333 169.32 15.8 169.32 15.2V11.7C169.304 10.2667 169.062 9.18333 168.595 8.45C168.145 7.71667 167.429 7.35833 166.445 7.375C165.845 7.39167 165.254 7.55 164.67 7.85C164.104 8.15 163.629 8.53333 163.245 9C163.262 9.13333 163.27 9.28333 163.27 9.45C163.27 9.61667 163.27 9.79167 163.27 9.975L163.245 16.35C163.245 16.6833 163.237 16.9833 163.22 17.25C163.22 17.5 163.195 17.7667 163.145 18.05C163.412 18.0333 163.67 18.025 163.92 18.025C164.187 18.0083 164.454 17.9917 164.72 17.975V19H159.62ZM180.406 19.4C179.256 19.4 178.214 19.1333 177.281 18.6C176.364 18.05 175.639 17.2833 175.106 16.3C174.573 15.3 174.306 14.125 174.306 12.775C174.306 11.6083 174.564 10.5167 175.081 9.5C175.614 8.48333 176.356 7.66667 177.306 7.05C178.256 6.41667 179.356 6.1 180.606 6.1C181.306 6.1 181.956 6.21667 182.556 6.45C183.173 6.66667 183.714 7.00833 184.181 7.475C184.648 7.925 185.014 8.5 185.281 9.2C185.548 9.88333 185.681 10.6917 185.681 11.625L176.881 11.775C176.881 13.0417 177.014 14.1583 177.281 15.125C177.564 16.075 178.014 16.8167 178.631 17.35C179.248 17.8667 180.039 18.125 181.006 18.125C181.523 18.125 182.048 18.0333 182.581 17.85C183.131 17.6667 183.639 17.4167 184.106 17.1C184.573 16.7833 184.948 16.4333 185.231 16.05L185.831 16.55C185.381 17.25 184.839 17.8083 184.206 18.225C183.573 18.6417 182.923 18.9417 182.256 19.125C181.589 19.3083 180.973 19.4 180.406 19.4ZM176.956 10.725H183.331C183.331 10.125 183.239 9.55 183.056 9C182.889 8.43333 182.606 7.975 182.206 7.625C181.806 7.25833 181.281 7.075 180.631 7.075C179.664 7.075 178.856 7.36667 178.206 7.95C177.573 8.51667 177.156 9.44167 176.956 10.725ZM199.473 2.325C198.856 2.34167 198.423 2.48333 198.173 2.75C197.94 3.01667 197.806 3.375 197.773 3.825C197.756 4.275 197.748 4.8 197.748 5.4V16.025C197.748 16.475 197.74 16.8667 197.723 17.2C197.723 17.5167 197.706 17.7833 197.673 18C197.973 17.9833 198.273 17.9667 198.573 17.95C198.873 17.9333 199.173 17.9167 199.473 17.9V19H193.848V18.175C194.481 18.1417 194.915 18 195.148 17.75C195.381 17.4833 195.506 17.125 195.523 16.675C195.556 16.2083 195.573 15.6833 195.573 15.1V4.3C195.573 3.96667 195.581 3.65 195.598 3.35C195.615 3.03333 195.631 2.75 195.648 2.5C195.348 2.51667 195.048 2.53333 194.748 2.55C194.448 2.56667 194.148 2.58333 193.848 2.6V1.5H199.473V2.325ZM207.397 2.325C206.78 2.34167 206.347 2.48333 206.097 2.75C205.864 3.01667 205.73 3.375 205.697 3.825C205.68 4.275 205.672 4.8 205.672 5.4V16.025C205.672 16.475 205.664 16.8667 205.647 17.2C205.647 17.5167 205.63 17.7833 205.597 18C205.897 17.9833 206.197 17.9667 206.497 17.95C206.797 17.9333 207.097 17.9167 207.397 17.9V19H201.772V18.175C202.405 18.1417 202.839 18 203.072 17.75C203.305 17.4833 203.43 17.125 203.447 16.675C203.48 16.2083 203.497 15.6833 203.497 15.1V4.3C203.497 3.96667 203.505 3.65 203.522 3.35C203.539 3.03333 203.555 2.75 203.572 2.5C203.272 2.51667 202.972 2.53333 202.672 2.55C202.372 2.56667 202.072 2.58333 201.772 2.6V1.5H207.397V2.325Z" fill="white"/>
</svg>
