<svg width="54" height="27" viewBox="0 0 54 27" fill="none" xmlns="http://www.w3.org/2000/svg">
<path d="M14.552 26.36C13.496 23.96 12.428 21.572 11.348 19.196C10.268 16.796 9.212 14.372 8.18 11.924C7.844 11.156 7.508 10.388 7.172 9.62C6.86 8.828 6.548 8.036 6.236 7.244C5.948 6.452 5.648 5.66 5.336 4.868C5.336 5.132 5.324 5.396 5.3 5.66C5.3 5.924 5.3 6.188 5.3 6.452C5.276 7.316 5.24 8.36 5.192 9.584C5.168 10.784 5.132 12.08 5.084 13.472C5.036 14.84 5 16.22 4.976 17.612C4.952 18.98 4.928 20.276 4.904 21.5C4.88 22.028 4.856 22.556 4.832 23.084C4.832 23.612 4.808 24.104 4.76 24.56C5.216 24.536 5.66 24.512 6.092 24.488C6.548 24.464 7.004 24.44 7.46 24.416V26H0.584V24.812C1.328 24.788 1.868 24.632 2.204 24.344C2.564 24.032 2.792 23.624 2.888 23.12C2.984 22.616 3.044 22.076 3.068 21.5L3.752 5.084C3.776 4.604 3.788 4.124 3.788 3.644C3.812 3.164 3.836 2.696 3.86 2.24C3.428 2.264 2.996 2.288 2.564 2.312C2.132 2.312 1.7 2.324 1.268 2.348V0.799998H6.776L12.968 15.092C13.28 15.812 13.58 16.532 13.868 17.252C14.18 17.972 14.492 18.692 14.804 19.412C15.14 20.132 15.464 20.864 15.776 21.608H15.848C16.112 20.96 16.424 20.192 16.784 19.304C17.144 18.392 17.444 17.612 17.684 16.964C18.74 14.324 19.832 11.684 20.96 9.044C22.112 6.38 23.24 3.632 24.344 0.799998H29.672V1.988C29.072 1.964 28.58 2.084 28.196 2.348C27.812 2.588 27.536 2.996 27.368 3.572C27.2 4.148 27.14 4.928 27.188 5.912L28.124 22.292C28.172 22.7 28.196 23.096 28.196 23.48C28.196 23.864 28.196 24.212 28.196 24.524C28.628 24.5 29.06 24.488 29.492 24.488C29.948 24.464 30.392 24.44 30.824 24.416V26H22.76V24.812C23.504 24.788 24.056 24.608 24.416 24.272C24.776 23.936 24.992 23.456 25.064 22.832C25.16 22.208 25.184 21.44 25.136 20.528L24.416 8.648C24.392 8.264 24.368 7.88 24.344 7.496C24.32 7.112 24.296 6.728 24.272 6.344C24.248 5.96 24.224 5.576 24.2 5.192C24.128 5.36 24.044 5.54 23.948 5.732C23.876 5.924 23.804 6.128 23.732 6.344L15.632 26.36H14.552ZM34.5769 24.812C35.4889 24.764 36.1129 24.56 36.4489 24.2C36.7849 23.816 36.9649 23.3 36.9889 22.652C37.0369 21.98 37.0609 21.224 37.0609 20.384V4.832C37.0609 4.352 37.0729 3.896 37.0969 3.464C37.1209 3.008 37.1449 2.6 37.1689 2.24C36.7369 2.264 36.3049 2.288 35.8729 2.312C35.4409 2.336 35.0089 2.36 34.5769 2.384V0.799998C35.8489 0.775999 37.1569 0.763999 38.5009 0.763999C39.8449 0.739999 41.2129 0.727999 42.6049 0.727999C44.9329 0.727999 46.8889 0.991999 48.4729 1.52C50.0569 2.048 51.2689 2.828 52.1089 3.86C52.9489 4.892 53.4049 6.176 53.4769 7.712C53.5249 8.648 53.3809 9.632 53.0449 10.664C52.7329 11.672 52.1329 12.632 51.2449 13.544C50.3809 14.432 49.1569 15.152 47.5729 15.704C45.9889 16.256 43.9609 16.532 41.4889 16.532C41.3929 16.532 41.2129 16.532 40.9489 16.532C40.6849 16.532 40.4329 16.52 40.1929 16.496V21.716C40.1929 22.364 40.1809 22.928 40.1569 23.408C40.1569 23.864 40.1329 24.248 40.0849 24.56C40.4689 24.536 40.8409 24.512 41.2009 24.488C41.5609 24.464 41.9209 24.452 42.2809 24.452C42.6649 24.428 43.0369 24.404 43.3969 24.38V26H34.5769V24.812ZM40.1929 15.02C40.6489 15.068 41.0329 15.104 41.3449 15.128C41.6809 15.128 42.0769 15.128 42.5329 15.128C43.9009 15.128 45.1489 14.864 46.2769 14.336C47.4049 13.784 48.3049 13.004 48.9769 11.996C49.6489 10.988 49.9849 9.788 49.9849 8.396C49.9849 7.268 49.8049 6.308 49.4449 5.516C49.0849 4.7 48.5689 4.052 47.8969 3.572C47.2489 3.068 46.4689 2.708 45.5569 2.492C44.6449 2.252 43.6369 2.132 42.5329 2.132C41.6929 2.132 41.1049 2.312 40.7689 2.672C40.4569 3.032 40.2769 3.536 40.2289 4.184C40.2049 4.808 40.1929 5.552 40.1929 6.416V15.02Z" fill="#33323D"/>
</svg>
